{"asset":{"version":"2.0","generator":"Blockbench 5.0.7 glTF exporter"},"scenes":[{"nodes":[1,7],"name":"blockbench_export"}],"scene":0,"nodes":[{"name":"Pack","mesh":0},{"translation":[0,0.25,0],"name":"Pack","children":[0]},{"translation":[0,0.5,0],"name":"bone4"},{"translation":[0,0.5,0],"name":"bone3","children":[2]},{"translation":[0,0.5,0],"name":"bone2","children":[3]},{"rotation":[-4.4232035697793986e-17,-0.7223639620597555,0.6915130557822694,4.234296251661807e-17],"translation":[1.75,0,1],"name":"bone","children":[4]},{"name":"armature","mesh":1,"children":[5],"skin":0},{"name":"Open","children":[6]}],"bufferViews":[{"buffer":0,"byteOffset":0,"byteLength":7680,"target":34962,"byteStride":12},{"buffer":0,"byteOffset":7680,"byteLength":7680,"target":34962,"byteStride":12},{"buffer":0,"byteOffset":15360,"byteLength":5120,"target":34962,"byteStride":8},{"buffer":0,"byteOffset":20480,"byteLength":1872,"target":34963},{"buffer":0,"byteOffset":22352,"byteLength":2256,"target":34962,"byteStride":12},{"buffer":0,"byteOffset":24608,"byteLength":2256,"target":34962,"byteStride":12},{"buffer":0,"byteOffset":26864,"byteLength":1504,"target":34962,"byteStride":8},{"buffer":0,"byteOffset":28368,"byteLength":1504,"target":34962,"byteStride":8},{"buffer":0,"byteOffset":29872,"byteLength":3008,"target":34962,"byteStride":16},{"buffer":0,"byteOffset":32880,"byteLength":552,"target":34963},{"buffer":0,"byteOffset":33432,"byteLength":256},{"buffer":0,"byteOffset":33688,"byteLength":24},{"buffer":0,"byteOffset":33712,"byteLength":72},{"buffer":0,"byteOffset":33784,"byteLength":28},{"buffer":0,"byteOffset":33812,"byteLength":112},{"buffer":0,"byteOffset":33924,"byteLength":4},{"buffer":0,"byteOffset":33928,"byteLength":12},{"buffer":0,"byteOffset":33940,"byteLength":36},{"buffer":0,"byteOffset":33976,"byteLength":144},{"buffer":0,"byteOffset":34120,"byteLength":28},{"buffer":0,"byteOffset":34148,"byteLength":112},{"buffer":0,"byteOffset":34260,"byteLength":28},{"buffer":0,"byteOffset":34288,"byteLength":112}],"buffers":[{"byteLength":34400,"uri":"data:application/octet-stream;base64,"}],"accessors":[{"bufferView":0,"componentType":5126,"count":640,"max":[1.6565924882888794,-0.125,1.015625],"min":[-1.90625,-0.375,-1.015625],"type":"VEC3"},{"bufferView":1,"componentType":5126,"count":640,"max":[0.8887332677841187,1,1],"min":[-0.8887332677841187,-1,-1],"type":"VEC3"},{"bufferView":2,"componentType":5126,"count":640,"max":[0.8658260703086853,0.5196107625961304],"min":[0.0015185937518253922,0],"type":"VEC2"},{"bufferView":3,"componentType":5123,"count":936,"max":[639],"min":[0],"type":"SCALAR"},{"bufferView":4,"componentType":5126,"count":188,"max":[1.90625,0.0425262451171875,1.015625],"min":[1.6356743574142456,-0.028515011072158813,-1.015625],"type":"VEC3"},{"bufferView":5,"componentType":5126,"count":188,"max":[0.5565133690834045,0.9993628263473511,0.896517813205719],"min":[-0.18758198618888855,-0.9993628263473511,-0.9072531461715698],"type":"VEC3"},{"bufferView":6,"componentType":5126,"count":188,"max":[0.5587090849876404,0.20745784044265747],"min":[0,0],"type":"VEC2"},{"bufferView":7,"componentType":5123,"count":188,"max":[3,1,0,0],"min":[0,0,0,0],"type":"VEC4"},{"bufferView":8,"componentType":5126,"count":188,"max":[1,0.2670894265174866,0,0],"min":[0.7329105734825134,0,0,0],"type":"VEC4"},{"bufferView":9,"componentType":5123,"count":276,"max":[187],"min":[0],"type":"SCALAR"},{"bufferView":10,"componentType":5126,"count":4,"max":[-1,5.341834374964865e-18,-1.2234812558404071e-16,0,1.2246468525851679e-16,0.04361938685178757,-0.9990482330322266,0,2.311115933264683e-33,-0.9990482330322266,-0.04361938685178757,0,1.75,0.9990482330322266,0.04361938685178757,1],"min":[-1,5.341834374964865e-18,-1.2234812558404071e-16,0,1.2246468525851679e-16,0.04361938685178757,-0.9990482330322266,0,2.311115933264683e-33,-0.9990482330322266,-0.04361938685178757,0,1.75,-0.5009517669677734,0.04361938685178757,1],"type":"MAT4"},{"bufferView":11,"componentType":5126,"count":6,"max":[1],"min":[0],"type":"SCALAR"},{"bufferView":12,"componentType":5126,"count":6,"max":[1.75,0.4375,1.5],"min":[1.75,0,1],"type":"VEC3"},{"bufferView":13,"componentType":5126,"count":7,"max":[0.833329975605011],"min":[0],"type":"SCALAR"},{"bufferView":14,"componentType":5126,"count":7,"max":[-4.329780301713277e-17,-0.7071067690849304,0.6915130615234375,4.234296196628321e-17],"min":[-6.005578077829767e-17,-0.9807852506637573,-0.7071067690849304,-4.329780301713277e-17],"type":"VEC4"},{"bufferView":15,"componentType":5126,"count":1,"max":[1],"min":[1],"type":"SCALAR"},{"bufferView":16,"componentType":5126,"count":1,"max":[0,0.5,0],"min":[0,0.5,0],"type":"VEC3"},{"bufferView":17,"componentType":5126,"count":9,"max":[0.833329975605011],"min":[0],"type":"SCALAR"},{"bufferView":18,"componentType":5126,"count":9,"max":[0,0,0,1],"min":[-0.8433914184570312,0,0,0.537299633026123],"type":"VEC4"},{"bufferView":19,"componentType":5126,"count":7,"max":[0.583329975605011],"min":[0],"type":"SCALAR"},{"bufferView":20,"componentType":5126,"count":7,"max":[0,0,0,1],"min":[-0.7660444378852844,0,0,0.6427876353263855],"type":"VEC4"},{"bufferView":21,"componentType":5126,"count":7,"max":[0.5],"min":[0],"type":"SCALAR"},{"bufferView":22,"componentType":5126,"count":7,"max":[0,0,0,1],"min":[-0.8191520571708679,0,0,0.5735764503479004],"type":"VEC4"}],"materials":[{"pbrMetallicRoughness":{"metallicFactor":0,"roughnessFactor":1,"baseColorTexture":{"index":0}},"alphaMode":"MASK","alphaCutoff":0.05,"doubleSided":true},{"pbrMetallicRoughness":{"metallicFactor":0,"roughnessFactor":1,"baseColorTexture":{"index":1}},"alphaMode":"MASK","alphaCutoff":0.05,"doubleSided":true}],"textures":[{"sampler":0,"source":0,"name":"texturePack.png"},{"sampler":1,"source":1,"name":"texture.png"}],"samplers":[{"magFilter":9728,"minFilter":9728,"wrapS":10497,"wrapT":10497},{"magFilter":9728,"minFilter":9728,"wrapS":10497,"wrapT":10497}],"images":[{"mimeType":"image/png","uri":"data:image/png;base64,"},{"mimeType":"image/png","uri":"data:image/png;base64,"}],"meshes":[{"primitives":[{"mode":4,"attributes":{"POSITION":0,"NORMAL":1,"TEXCOORD_0":2},"indices":3,"material":0}]},{"primitives":[{"mode":4,"attributes":{"POSITION":4,"NORMAL":5,"TEXCOORD_0":6,"JOINTS_0":7,"WEIGHTS_0":8},"indices":9,"material":1}]}],"skins":[{"inverseBindMatrices":10,"joints":[5,4,3,2],"skeleton":5}],"animations":[{"name":"OpenAnimation","samplers":[{"input":11,"output":12,"interpolation":"LINEAR"},{"input":13,"output":14,"interpolation":"LINEAR"},{"input":15,"output":16,"interpolation":"LINEAR"},{"input":17,"output":18,"interpolation":"LINEAR"},{"input":19,"output":20,"interpolation":"LINEAR"},{"input":21,"output":22,"interpolation":"LINEAR"}],"channels":[{"sampler":0,"target":{"node":5,"path":"translation"}},{"sampler":1,"target":{"node":5,"path":"rotation"}},{"sampler":2,"target":{"node":4,"path":"translation"}},{"sampler":3,"target":{"node":4,"path":"rotation"}},{"sampler":4,"target":{"node":3,"path":"rotation"}},{"sampler":5,"target":{"node":2,"path":"rotation"}}]}]}